<?xml version="1.0" encoding="UTF-8"?><svg id="Layer_2" xmlns="http://www.w3.org/2000/svg" viewBox="0 0 30.24 26.16"><defs><style>.cls-1{fill:#215e9e;}</style></defs><g id="Layer_1-2"><path class="cls-1" d="M12.09,0V11.78c.06,1.88-.21,3.65-.81,5.31-.6,1.65-1.43,3.11-2.51,4.36-1.08,1.25-2.37,2.3-3.88,3.12-1.5,.83-3.14,1.35-4.9,1.58v-5.65c2.16-.74,3.63-1.84,4.43-3.29,.8-1.46,1.19-3.24,1.19-5.35H0V0H12.09ZM30.23,0V11.78c.06,1.88-.21,3.65-.81,5.31-.6,1.65-1.43,3.11-2.51,4.36-1.08,1.25-2.37,2.3-3.88,3.12-1.5,.83-3.14,1.35-4.9,1.58v-5.65c2.16-.74,3.63-1.84,4.43-3.29,.8-1.46,1.19-3.24,1.19-5.35h-5.62V0h12.09Z"/></g></svg>