<svg xmlns="http://www.w3.org/2000/svg" viewBox="0 0 404.62 80.06"><defs><style>.cls-1{fill:#ef3a5e;}</style></defs><title>page-5-text</title><g id="Layer_2" data-name="Layer 2"><g id="Layer_1-2" data-name="Layer 1"><path class="cls-1" d="M.08,17.74H5.62c0,2.7,1.1,4.45,5.28,4.45s5.17-1.52,5.17-3.12A2,2,0,0,0,14.63,17a44.12,44.12,0,0,0-5.78-1.06c-2.47-.38-5-.87-6.42-1.82A5.75,5.75,0,0,1,0,8.93C0,4.22,3.69,1,10.9,1c8,0,10.53,3.3,10.53,8.93H15.92c0-2.85-1.48-4.41-4.9-4.41S6.19,6.72,6.19,8.4c0,1.21.35,1.9,1.22,2.28a36.16,36.16,0,0,0,5.7,1.17,22,22,0,0,1,6.42,1.71,5.4,5.4,0,0,1,2.73,5.1c0,4.25-2.39,8.05-11.32,8.05C2.36,26.71.08,22.34.08,17.74Z"/><path class="cls-1" d="M24.93,7.56H30.7l-.19,4.86h0c.87-3.23,3-5.16,6.42-5.16,3.61,0,5.93,1.86,6.35,4.9h0c.76-3,2.81-4.9,6.42-4.9,4.1,0,6.42,2.58,6.42,7V26.33H50.42V15.58c0-2.21-1.14-3.54-3.11-3.54-2.28,0-3.88,1.75-3.88,5.21v9.08H37.66V15.58c0-2.21-1.14-3.54-3.12-3.54-2.24,0-3.84,1.79-3.84,5.32v9H24.93Z"/><path class="cls-1" d="M58.67,20.93c0-3.07,2.21-5.31,7.18-5.31H72V14.36c0-2.28-1.29-3.19-4-3.19-2.17,0-3.42.91-3.42,2.43a7.46,7.46,0,0,0,0,.8H59.32a8.86,8.86,0,0,1-.08-1.1c0-3.8,3.34-6,9-6,6,0,9.47,2.66,9.47,7.67v11.4H72c.11-.95.27-2.66.27-3.8h0c-.57,2.66-2.7,4.1-6.12,4.1C61.71,26.63,58.67,24.73,58.67,20.93ZM72,19.11v-.38H66.38c-1.55,0-2.5.72-2.5,1.79,0,1.44,1.25,2.2,3.34,2.2C70.22,22.72,72,21.39,72,19.11Z"/><path class="cls-1" d="M80.52,0H86.3V26.33H80.52Z"/><path class="cls-1" d="M89.34,0h5.77V26.33H89.34Z"/><path class="cls-1" d="M127.18,27.89c0,4.29-3.84,6.57-10.33,6.57s-10.53-1.82-10.53-4.94c0-2,1.29-3.19,3.38-3.42v0A3.45,3.45,0,0,1,108,23a3.65,3.65,0,0,1,2.31-3.54v0A6,6,0,0,1,107.2,14c0-4.22,3.26-6.72,8.77-6.72a11.43,11.43,0,0,1,5.44,1.14l0-.08a2.92,2.92,0,0,1-1.1-2.13c0-1.55,1.56-2.47,4-2.47a9.23,9.23,0,0,1,2.09.19V7.56a5,5,0,0,0-1.14-.11c-1.21,0-1.78.53-1.78,1.4a4.9,4.9,0,0,0,.42,1.71,6.28,6.28,0,0,1,.91,3.42c0,4.22-3.27,6.69-8.82,6.69a16.49,16.49,0,0,1-3.11-.3,2.3,2.3,0,0,0-.34,1.21c0,.84.68,1.33,1.82,1.33h6.08C124.67,22.91,127.18,24.77,127.18,27.89Zm-5.77.8c0-1-.76-1.6-2.44-1.6h-4.44c-1.56,0-2.47.65-2.47,1.71,0,1.41,1.75,2.17,4.71,2.17S121.41,30.17,121.41,28.69ZM112.63,14c0,1.9,1.25,3,3.34,3s3.39-1.14,3.39-3S118.1,10.9,116,10.9,112.63,12,112.63,14Z"/><path class="cls-1" d="M129.54,1h5.78V5.58h-5.78Zm0,6.57h5.78V26.33h-5.78Z"/><path class="cls-1" d="M137.56,7.56h6.72l4.83,13.49h.07l4.94-13.49h5.93L152.3,26.33h-6.88Z"/><path class="cls-1" d="M179.7,18.05H166.36c.27,3.08,1.82,4.41,4.41,4.41,2.24,0,3.68-.8,3.84-2.63h5.09c-.12,4.3-3.69,6.8-9,6.8-6.23,0-10.1-3.53-10.1-9.49,0-6.2,3.87-9.88,10.22-9.88,5.24,0,8.93,3,8.93,9.15Zm-5.09-3.38c0-2.13-1.45-3.23-3.84-3.23S167,12.5,166.51,15h8.1Z"/><path class="cls-1" d="M181.9,20h5.17c0,1.75.87,2.89,4.18,2.89,3,0,4.07-.87,4.07-2.24,0-.68-.35-1.22-1.33-1.44a34,34,0,0,0-4.37-.54c-2.7-.23-4.79-.64-5.93-1.44a4.54,4.54,0,0,1-1.79-3.69c0-4.06,4.18-6.3,9.39-6.3,6.15,0,9,2.35,9,6.72h-5.09c0-2-.95-3-3.8-3-2.58,0-3.72.87-3.72,2.17A1.55,1.55,0,0,0,189,14.82a41.69,41.69,0,0,0,4.63.57c2.32.23,4,.45,5.36,1.25a4.27,4.27,0,0,1,2.09,3.73c0,3.95-3.38,6.26-9.8,6.26C184.68,26.63,181.9,23.82,181.9,20Z"/><path class="cls-1" d="M212.19,18.69V7.56H218V18c0,2.62,1.45,3.84,3.92,3.84,3.11,0,5-2.06,5-6.16V7.56h5.77V26.33h-5.77c.11-1.29.22-2.85.26-4.9H227c-.83,3.61-3.38,5.2-6.95,5.2C215.23,26.63,212.19,24.2,212.19,18.69Z"/><path class="cls-1" d="M235.22,20h5.16c0,1.75.88,2.89,4.18,2.89,3,0,4.07-.87,4.07-2.24,0-.68-.34-1.22-1.33-1.44a34,34,0,0,0-4.37-.54c-2.7-.23-4.79-.64-5.93-1.44a4.53,4.53,0,0,1-1.78-3.69c0-4.06,4.18-6.3,9.38-6.3,6.16,0,9,2.35,9,6.72h-5.09c0-2-.95-3-3.8-3-2.59,0-3.73.87-3.73,2.17a1.56,1.56,0,0,0,1.37,1.67,41.61,41.61,0,0,0,4.64.57,13.21,13.21,0,0,1,5.35,1.25,4.27,4.27,0,0,1,2.09,3.73c0,3.95-3.38,6.26-9.8,6.26C238,26.63,235.22,23.82,235.22,20Z"/><path class="cls-1" d="M267.29,19.87V12h-2.78V7.56h2.25c.87,0,1.17-.49,1.29-1.63l.26-2.62h4.75V7.56h6V12h-6v7.53c0,1.93.91,2.54,3.19,2.54a14.2,14.2,0,0,0,2.63-.26v4.37a18.91,18.91,0,0,1-3.65.41C269.38,26.63,267.29,24.05,267.29,19.87Z"/><path class="cls-1" d="M281.58,0h5.77V8.28c0,.72-.11,2.85-.23,4.26h.08c.95-3.57,3.15-5.28,7.41-5.28,4.52,0,7.44,2.47,7.44,7.33V26.33h-5.77V15.88c0-2.66-1.48-3.84-4.07-3.84-3,0-4.86,1.79-4.86,5.36v8.93h-5.77Z"/><path class="cls-1" d="M323.56,18.05H310.23c.26,3.08,1.82,4.41,4.4,4.41,2.25,0,3.69-.8,3.84-2.63h5.09c-.11,4.3-3.68,6.8-9,6.8-6.23,0-10.11-3.53-10.11-9.49,0-6.2,3.88-9.88,10.22-9.88,5.25,0,8.93,3,8.93,9.15Zm-5.09-3.38c0-2.13-1.44-3.23-3.84-3.23s-3.8,1.06-4.25,3.53h8.09Z"/><path class="cls-1" d="M.3,53.16H6.08L6,57H6c.72-2.59,3.12-4.14,6.35-4.14,5.24,0,8.66,3.72,8.66,9.27,0,6.08-3.42,10.1-8.7,10.1-3.42,0-5.55-1.4-6.38-3.68h0c.07,1.25.19,3.11.19,3.8v7.1H.3Zm15,9.2c0-3-1.74-5.1-4.37-5.1-2.88,0-4.82,2.09-4.82,5.25v.83c0,2.7,1.94,4.49,4.86,4.49C13.53,67.83,15.27,65.62,15.27,62.36Z"/><path class="cls-1" d="M23.22,62.58c0-6.11,4-9.72,10.22-9.72s10.22,3.61,10.22,9.72-4,9.65-10.22,9.65S23.22,68.66,23.22,62.58Zm14.66,0c0-3.34-1.63-5.32-4.44-5.32S29,59.24,29,62.58s1.64,5.25,4.45,5.25S37.88,65.89,37.88,62.58Z"/><path class="cls-1" d="M44.73,53.16H50.8L54,66.34H54l3.61-13.18h5.74l3.5,13.18h0l3.3-13.18h5.4L70.37,71.93h-7.1L60.19,59.58h-.11L56.81,71.93H50Z"/><path class="cls-1" d="M95.87,63.65H82.53c.27,3.07,1.83,4.4,4.41,4.4,2.24,0,3.69-.79,3.84-2.62h5.09c-.11,4.3-3.69,6.8-9,6.8-6.23,0-10.11-3.53-10.11-9.49,0-6.2,3.88-9.88,10.22-9.88,5.24,0,8.93,3,8.93,9.15Zm-5.09-3.38c0-2.13-1.45-3.23-3.84-3.23s-3.8,1.06-4.25,3.53h8.09Z"/><path class="cls-1" d="M98.42,53.16h5.77L104,58.52H104c.8-3.57,2.81-5.66,6.5-5.66s6.08,2.47,6.08,7.33c0,1.06-.12,2.73-.19,3.72h-5.24c.07-.91.11-1.86.11-2.43,0-2.73-1.1-3.84-2.93-3.84-2.47,0-4.18,2-4.18,6.2v8.09H98.42Z"/><path class="cls-1" d="M129.43,65.47V57.64h-2.78V53.16h2.24c.88,0,1.18-.49,1.3-1.63l.26-2.62h4.75v4.25h6v4.48h-6v7.53c0,1.93.91,2.54,3.19,2.54a14,14,0,0,0,2.62-.26v4.37a18.78,18.78,0,0,1-3.64.41C131.52,72.23,129.43,69.65,129.43,65.47Z"/><path class="cls-1" d="M142.54,62.58c0-6.11,4-9.72,10.22-9.72S163,56.47,163,62.58s-4,9.65-10.22,9.65S142.54,68.66,142.54,62.58Zm14.66,0c0-3.34-1.63-5.32-4.44-5.32s-4.45,2-4.45,5.32,1.63,5.25,4.45,5.25S157.2,65.89,157.2,62.58Z"/><path class="cls-1" d="M173.92,62.39c0-5.73,3.57-9.53,9.05-9.53,3,0,5,1.14,5.85,3.07h0V45.6h5.78V71.93h-5.78c0-.38.12-2,.23-4H189c-.72,2.66-2.85,4.33-6.27,4.33C177.3,72.23,173.92,68.28,173.92,62.39Zm14.93.31v-.91a4.38,4.38,0,0,0-4.71-4.53c-2.69,0-4.48,2.06-4.48,5.17s1.75,5.4,4.41,5.4C187,67.83,188.85,65.77,188.85,62.7Z"/><path class="cls-1" d="M197.25,62.58c0-6.11,4-9.72,10.23-9.72s10.22,3.61,10.22,9.72-4,9.65-10.22,9.65S197.25,68.66,197.25,62.58Zm14.67,0c0-3.34-1.63-5.32-4.44-5.32s-4.45,2-4.45,5.32,1.63,5.25,4.45,5.25S211.92,65.89,211.92,62.58Z"/><path class="cls-1" d="M234.68,68.4h0c0,1.1.11,2.62.19,3.53h-5.78V45.6h5.78v7.86c0,.88-.08,2.44-.12,3.35h.08c.72-2.47,3.11-4,6.46-4,5.35,0,8.51,3.45,8.51,9.31,0,6.34-3.19,10.06-8.55,10.06C237.8,72.23,235.37,70.79,234.68,68.4Zm9.31-6c0-3.2-1.59-5.1-4.29-5.1-3,0-4.86,1.94-4.86,5.17v.87c0,2.85,1.82,4.53,4.9,4.53C242.4,67.83,244,65.81,244,62.36Z"/><path class="cls-1" d="M252.47,46.59h5.77v4.59h-5.77Zm0,6.57h5.77V71.93h-5.77Z"/><path class="cls-1" d="M281.65,73.49c0,4.29-3.84,6.57-10.33,6.57s-10.53-1.82-10.53-4.94c0-2,1.29-3.19,3.38-3.42v0a3.46,3.46,0,0,1-1.75-3.07,3.66,3.66,0,0,1,2.32-3.54v0a6,6,0,0,1-3.08-5.43c0-4.22,3.27-6.72,8.78-6.72A11.39,11.39,0,0,1,275.87,54l0-.08a2.92,2.92,0,0,1-1.1-2.13c0-1.55,1.56-2.47,3.95-2.47a9.23,9.23,0,0,1,2.09.19v3.65a5,5,0,0,0-1.14-.11c-1.21,0-1.78.53-1.78,1.4a5.08,5.08,0,0,0,.41,1.71,6.2,6.2,0,0,1,.92,3.42c0,4.22-3.27,6.69-8.82,6.69a15.67,15.67,0,0,1-3.11-.31,2.27,2.27,0,0,0-.35,1.22c0,.84.69,1.33,1.83,1.33h6.08C279.14,68.51,281.65,70.37,281.65,73.49Zm-5.78.8c0-1-.76-1.6-2.43-1.6H269c-1.56,0-2.47.65-2.47,1.71,0,1.4,1.75,2.17,4.71,2.17S275.87,75.77,275.87,74.29ZM267.1,59.58c0,1.9,1.25,3,3.34,3s3.38-1.14,3.38-3-1.25-3.08-3.38-3.08S267.1,57.64,267.1,59.58Z"/><path class="cls-1" d="M294.19,65.47V57.64h-2.77V53.16h2.24c.87,0,1.18-.49,1.29-1.63l.27-2.62H300v4.25h6v4.48h-6v7.53c0,1.93.91,2.54,3.19,2.54a14.09,14.09,0,0,0,2.62-.26v4.37a18.8,18.8,0,0,1-3.65.41C296.28,72.23,294.19,69.65,294.19,65.47Z"/><path class="cls-1" d="M308.48,45.6h5.77v8.28c0,.72-.11,2.85-.22,4.26h.07c.95-3.57,3.16-5.28,7.41-5.28,4.52,0,7.45,2.47,7.45,7.33V71.93h-5.78V61.48c0-2.66-1.48-3.84-4.06-3.84-3,0-4.87,1.79-4.87,5.36v8.93h-5.77Z"/><path class="cls-1" d="M331.81,46.59h5.78v4.59h-5.78Zm0,6.57h5.78V71.93h-5.78Z"/><path class="cls-1" d="M340.63,53.16h5.77l-.23,5h.08c.95-3.57,3.15-5.28,7.41-5.28,4.52,0,7.45,2.47,7.45,7.33V71.93h-5.78V61.48c0-2.66-1.52-3.84-4.06-3.84-3,0-4.87,1.79-4.87,5.36v8.93h-5.77Z"/><path class="cls-1" d="M384.17,73.49c0,4.29-3.84,6.57-10.33,6.57s-10.53-1.82-10.53-4.94c0-2,1.29-3.19,3.38-3.42v0A3.45,3.45,0,0,1,365,68.59a3.65,3.65,0,0,1,2.31-3.54v0a6,6,0,0,1-3.07-5.43c0-4.22,3.26-6.72,8.77-6.72A11.43,11.43,0,0,1,378.4,54l0-.08a2.92,2.92,0,0,1-1.1-2.13c0-1.55,1.56-2.47,3.95-2.47a9.23,9.23,0,0,1,2.09.19v3.65a5,5,0,0,0-1.14-.11c-1.21,0-1.78.53-1.78,1.4a4.9,4.9,0,0,0,.42,1.71,6.28,6.28,0,0,1,.91,3.42c0,4.22-3.27,6.69-8.82,6.69a15.67,15.67,0,0,1-3.11-.31,2.37,2.37,0,0,0-.34,1.22c0,.84.68,1.33,1.82,1.33h6.08C381.66,68.51,384.17,70.37,384.17,73.49Zm-5.77.8c0-1-.76-1.6-2.44-1.6h-4.44c-1.56,0-2.47.65-2.47,1.71,0,1.4,1.75,2.17,4.71,2.17S378.4,75.77,378.4,74.29Zm-8.78-14.71c0,1.9,1.25,3,3.34,3s3.39-1.14,3.39-3S375.09,56.5,373,56.5,369.62,57.64,369.62,59.58Z"/><path class="cls-1" d="M385.43,65.62h5.17c0,1.75.87,2.89,4.18,2.89,3,0,4.06-.87,4.06-2.24,0-.69-.34-1.22-1.33-1.44a34,34,0,0,0-4.37-.54c-2.7-.23-4.79-.64-5.93-1.44a4.53,4.53,0,0,1-1.78-3.69c0-4.06,4.18-6.3,9.38-6.3,6.16,0,9,2.35,9,6.72h-5.09c0-2-.95-3-3.8-3-2.58,0-3.72.87-3.72,2.17a1.55,1.55,0,0,0,1.36,1.67,41.94,41.94,0,0,0,4.64.57,13.1,13.1,0,0,1,5.36,1.25A4.27,4.27,0,0,1,404.62,66c0,4-3.39,6.27-9.81,6.27C388.2,72.23,385.43,69.42,385.43,65.62Z"/></g></g></svg>