<svg xmlns="http://www.w3.org/2000/svg" viewBox="0 0 62.13 190.76"><defs><style>.cls-1{fill:#ef3a5e;}</style></defs><title>page-4-seasaw-stand</title><g id="Layer_2" data-name="Layer 2"><g id="Layer_1-2" data-name="Layer 1"><path class="cls-1" d="M31.06,63a31.28,31.28,0,0,0,31.07-31.5A31.28,31.28,0,0,0,31.06,0,31.28,31.28,0,0,0,0,31.49,31.28,31.28,0,0,0,31.06,63"/><path class="cls-1" d="M31.06,127.07a31.5,31.5,0,0,0,0-63,31.5,31.5,0,0,0,0,63"/><path class="cls-1" d="M31.06,190.76a31.49,31.49,0,0,0,0-63,31.49,31.49,0,0,0,0,63"/></g></g></svg>