<svg xmlns="http://www.w3.org/2000/svg" viewBox="0 0 257.49 149.96"><defs><style>.cls-1{fill:#ef3a5e;}</style></defs><title>page-4-text</title><g id="Layer_2" data-name="Layer 2"><g id="Layer_1-2" data-name="Layer 1"><path class="cls-1" d="M4.23,1.33h6.23v25H4.23Z"/><path class="cls-1" d="M13.8,7.56h5.78l-.23,5h.08c.95-3.57,3.15-5.28,7.4-5.28,4.53,0,7.45,2.47,7.45,7.33V26.33H28.51V15.88C28.51,13.22,27,12,24.44,12c-3,0-4.86,1.79-4.86,5.36v8.93H13.8Z"/><path class="cls-1" d="M45.5,20.94c0-3.08,2.2-5.32,7.18-5.32h6.11V14.36c0-2.28-1.29-3.19-3.95-3.19-2.16,0-3.42.91-3.42,2.43a7.46,7.46,0,0,0,0,.8H46.14a9,9,0,0,1-.07-1.1c0-3.8,3.34-6,9-6,6,0,9.46,2.66,9.46,7.67v11.4H58.79a36.31,36.31,0,0,0,.27-3.8h0c-.57,2.66-2.7,4.1-6.12,4.1C48.54,26.63,45.5,24.73,45.5,20.94Zm13.29-1.83v-.38H53.21c-1.56,0-2.51.72-2.51,1.79,0,1.44,1.25,2.2,3.34,2.2C57,22.72,58.79,21.39,58.79,19.11Z"/><path class="cls-1" d="M75.21,1.33H82l4.45,17.48h.11L91.13,1.33h6.19l4.52,17.48H102l4.29-17.48h6.16l-7.34,25H98.12L93.9,10h-.11L89.34,26.33H82.5Z"/><path class="cls-1" d="M111.12,17c0-6.11,4-9.72,10.22-9.72s10.22,3.61,10.22,9.72-4,9.65-10.22,9.65S111.12,23.06,111.12,17Zm14.67,0c0-3.34-1.64-5.32-4.45-5.32s-4.44,2-4.44,5.32,1.63,5.25,4.44,5.25S125.79,20.29,125.79,17Z"/><path class="cls-1" d="M134.11,7.56h5.77l-.22,5.36h.07c.8-3.57,2.81-5.66,6.5-5.66,3.84,0,6.08,2.47,6.08,7.33,0,1.06-.11,2.74-.19,3.72h-5.24c.07-.91.11-1.86.11-2.43,0-2.73-1.1-3.84-2.93-3.84-2.47,0-4.18,2-4.18,6.2v8.09h-5.77Z"/><path class="cls-1" d="M154.86,0h5.77V26.33h-5.77Z"/><path class="cls-1" d="M163.25,16.79c0-5.73,3.58-9.53,9.05-9.53,3,0,5,1.14,5.85,3.07h0V0H184V26.33h-5.77c0-.38.11-2,.23-4h-.08c-.72,2.66-2.85,4.33-6.27,4.33C166.64,26.63,163.25,22.68,163.25,16.79Zm14.94.31v-.91a4.39,4.39,0,0,0-4.71-4.53c-2.7,0-4.49,2.06-4.49,5.17s1.75,5.4,4.41,5.4C176.29,22.23,178.19,20.17,178.19,17.1Z"/><path class="cls-1" d="M3.47,59.32c0-8,5.85-12.77,13.41-12.77S30.29,51.3,30.29,59.32s-5.85,13-13.41,13S3.47,67.48,3.47,59.32Zm20.36,0c0-5-3-7.9-6.95-7.9s-6.95,2.93-6.95,7.9,3,8.06,7,8.06S23.83,64.41,23.83,59.35Z"/><path class="cls-1" d="M38.58,68.4h0c0,1.1.11,2.62.19,3.53H33V45.6h5.77v7.86c0,.88-.08,2.44-.11,3.35h.07c.72-2.47,3.12-4,6.46-4,5.36,0,8.51,3.45,8.51,9.31,0,6.34-3.19,10.06-8.55,10.06C41.69,72.23,39.26,70.79,38.58,68.4Zm9.31-6c0-3.2-1.6-5.1-4.3-5.1-3,0-4.86,1.94-4.86,5.17v.88c0,2.84,1.82,4.52,4.9,4.52C46.29,67.83,47.89,65.81,47.89,62.36Z"/><path class="cls-1" d="M55.75,65.62h5.17c0,1.75.88,2.89,4.18,2.89,3,0,4.07-.87,4.07-2.24,0-.69-.34-1.22-1.33-1.44a35.94,35.94,0,0,0-4.37-.54c-2.7-.22-4.79-.64-5.93-1.44a4.54,4.54,0,0,1-1.79-3.69c0-4.06,4.18-6.3,9.39-6.3,6.15,0,9,2.35,9,6.72H69c0-2-1-3-3.8-3-2.59,0-3.73.87-3.73,2.17a1.56,1.56,0,0,0,1.37,1.67A41.61,41.61,0,0,0,67.5,61a13.21,13.21,0,0,1,5.35,1.25A4.26,4.26,0,0,1,74.94,66c0,4-3.38,6.27-9.8,6.27C58.53,72.23,55.75,69.42,55.75,65.62Z"/><path class="cls-1" d="M96.3,63.65H83c.27,3.08,1.83,4.4,4.41,4.4,2.24,0,3.68-.79,3.84-2.62H96.3c-.12,4.3-3.69,6.8-9,6.8-6.23,0-10.1-3.53-10.1-9.49,0-6.2,3.87-9.88,10.22-9.88,5.24,0,8.93,3,8.93,9.15Zm-5.09-3.38c0-2.13-1.45-3.23-3.84-3.23s-3.8,1.06-4.26,3.53h8.1Z"/><path class="cls-1" d="M98.5,65.62h5.17c0,1.75.88,2.89,4.18,2.89,3,0,4.07-.87,4.07-2.24,0-.69-.34-1.22-1.33-1.44a35.94,35.94,0,0,0-4.37-.54c-2.7-.22-4.79-.64-5.93-1.44a4.54,4.54,0,0,1-1.79-3.69c0-4.06,4.18-6.3,9.39-6.3,6.15,0,9,2.35,9,6.72h-5.09c0-2-1-3-3.8-3-2.59,0-3.73.87-3.73,2.17a1.56,1.56,0,0,0,1.37,1.67,41.61,41.61,0,0,0,4.64.57,13.21,13.21,0,0,1,5.35,1.25A4.26,4.26,0,0,1,117.69,66c0,4-3.38,6.27-9.8,6.27C101.28,72.23,98.5,69.42,98.5,65.62Z"/><path class="cls-1" d="M119.9,65.62h5.17c0,1.75.87,2.89,4.18,2.89,3,0,4.06-.87,4.06-2.24,0-.69-.34-1.22-1.33-1.44a35.94,35.94,0,0,0-4.37-.54c-2.7-.22-4.79-.64-5.93-1.44a4.53,4.53,0,0,1-1.78-3.69c0-4.06,4.18-6.3,9.38-6.3,6.16,0,9,2.35,9,6.72h-5.09c0-2-.95-3-3.8-3-2.58,0-3.72.87-3.72,2.17A1.55,1.55,0,0,0,127,60.42a41.94,41.94,0,0,0,4.64.57A13.26,13.26,0,0,1,137,62.24,4.28,4.28,0,0,1,139.09,66c0,4-3.39,6.27-9.81,6.27C122.67,72.23,119.9,69.42,119.9,65.62Z"/><path class="cls-1" d="M141.29,62.39c0-5.73,3.57-9.53,9-9.53,3,0,5,1.14,5.86,3.07h0V45.6H162V71.93h-5.78c0-.38.12-2,.23-4h-.07c-.73,2.66-2.85,4.33-6.27,4.33C144.67,72.23,141.29,68.28,141.29,62.39Zm14.93.31v-.91a4.39,4.39,0,0,0-4.71-4.53c-2.69,0-4.48,2.06-4.48,5.17s1.75,5.4,4.41,5.4C154.32,67.83,156.22,65.77,156.22,62.7Z"/><path class="cls-1" d="M172.91,46.93h6.8l4.44,17.48h.12l4.56-17.48H195l4.52,17.48h.12L204,46.93h6.15l-7.33,25h-7L191.6,55.59h-.11L187,71.93H180.2Z"/><path class="cls-1" d="M212.31,46.59h5.78v4.6h-5.78Zm0,6.57h5.78V71.93h-5.78Z"/><path class="cls-1" d="M222.72,65.47V57.64H220V53.16h2.24c.88,0,1.18-.49,1.3-1.63l.26-2.62h4.75v4.25h6v4.48h-6v7.53c0,1.93.91,2.54,3.19,2.54a14,14,0,0,0,2.62-.26v4.37a18.78,18.78,0,0,1-3.64.41C224.81,72.23,222.72,69.65,222.72,65.47Z"/><path class="cls-1" d="M237,45.6h5.78v8.28c0,.72-.12,2.85-.23,4.26h.08c1-3.57,3.15-5.28,7.4-5.28,4.53,0,7.45,2.47,7.45,7.33V71.93h-5.77V61.48c0-2.66-1.48-3.84-4.07-3.84-3,0-4.86,1.79-4.86,5.36v8.93H237Z"/><path class="cls-1" d="M0,89.84H26.1c13.95,0,22.23,5.76,22.23,15.48,0,6.57-3.15,11.25-8.46,12.69v.09c6.39,1.44,10.71,6.21,10.71,13.68,0,10.89-7.65,17.28-22.59,17.28H0Zm27.09,24.57c5.31,0,8.28-2.34,8.28-6.75s-3-7.11-9.36-7.11H14.76v13.86Zm.9,23.94c5.4,0,8.55-3.06,8.55-8.1,0-4.14-3.24-6.93-8.91-6.93H14.76v15Z"/><path class="cls-1" d="M57.69,89.84H72.45v59.22H57.69Z"/><path class="cls-1" d="M79.65,120.26c0-19.71,13.32-31.32,31.5-31.32,14.94,0,26.91,8,26.91,21.51a33.13,33.13,0,0,1-.18,3.51H125c.09-1,.09-1.89.09-2.52,0-7-6.39-10.89-13.41-10.89-10.08,0-17,7.38-17,19.8,0,11.79,7.29,18.81,16.47,18.81,6.66,0,13.32-4,13.32-10.8v-.9h-15.3v-8.37h29.34v30H127.08c.09-2.16.27-6.39.27-10.17h-.09c-1.71,6.93-8.55,11.07-18.18,11.07C92.16,150,79.65,138.89,79.65,120.26Z"/></g></g></svg>