<svg xmlns="http://www.w3.org/2000/svg" viewBox="0 0 134.14 67.76"><defs><style>.cls-1{fill:#ef3a5e;}</style></defs><title>page-3-small-dot</title><g id="Layer_2" data-name="Layer 2"><g id="Layer_1-2" data-name="Layer 1"><path class="cls-1" d="M0,0H6.8l4.45,17.48h.11L15.92,0h6.19l4.52,17.48h.12L31,0H37.2L29.86,25H22.91L18.69,8.66h-.11L14.13,25H7.29Z"/><path class="cls-1" d="M55,16.72H41.69c.26,3.08,1.82,4.41,4.4,4.41,2.24,0,3.69-.8,3.84-2.63H55c-.11,4.3-3.68,6.8-9,6.8-6.23,0-10.11-3.53-10.11-9.49,0-6.2,3.88-9.88,10.22-9.88,5.25,0,8.93,3,8.93,9.15Zm-5.09-3.38c0-2.13-1.44-3.23-3.84-3.23s-3.8,1.06-4.25,3.53h8.09Z"/><path class="cls-1" d="M83.6,19.91h-10L71.9,25H65.51L75.16,0h7.75l9.65,25H85.31ZM82.31,16,78.62,5.09h-.08L74.9,16Z"/><path class="cls-1" d="M94.66,6.23h5.77l-.22,5.36h.07c.8-3.57,2.81-5.66,6.5-5.66,3.84,0,6.08,2.47,6.08,7.33,0,1.06-.12,2.74-.19,3.72h-5.25c.08-.91.12-1.86.12-2.43,0-2.73-1.1-3.84-2.93-3.84-2.47,0-4.18,2-4.18,6.2V25H94.66Z"/><path class="cls-1" d="M134.14,16.72H120.8c.27,3.08,1.82,4.41,4.41,4.41,2.24,0,3.68-.8,3.83-2.63h5.1c-.12,4.3-3.69,6.8-9,6.8-6.23,0-10.1-3.53-10.1-9.49,0-6.2,3.87-9.88,10.22-9.88,5.24,0,8.93,3,8.93,9.15ZM129,13.34c0-2.13-1.44-3.23-3.83-3.23s-3.8,1.06-4.26,3.53H129Z"/><path class="cls-1" d="M1.4,58.32H7.24C7.24,61.16,8.4,63,12.8,63s5.44-1.6,5.44-3.28a2.09,2.09,0,0,0-1.52-2.2,47,47,0,0,0-6.08-1.12C8,56,5.4,55.48,3.88,54.48,2.2,53.4,1.32,51.56,1.32,49c0-5,3.88-8.4,11.48-8.4,8.36,0,11.08,3.48,11.08,9.4h-5.8c0-3-1.56-4.64-5.16-4.64s-5.08,1.32-5.08,3.08c0,1.28.36,2,1.28,2.4a37.24,37.24,0,0,0,6,1.24,22.75,22.75,0,0,1,6.76,1.8,5.68,5.68,0,0,1,2.87,5.36c0,4.48-2.51,8.48-11.91,8.48C3.8,67.76,1.4,63.16,1.4,58.32Z"/><path class="cls-1" d="M27.84,41H38.12l5.64,17.52h.08L49.44,41h10V67.36H52.83L53,46.68h-.07L46.28,67.36H40.64L34,46.68h-.08L34,67.36H27.84Z"/><path class="cls-1" d="M80.92,62H70.4l-1.8,5.36H61.88L72,41H80.2L90.35,67.36H82.71Zm-1.37-4.08L75.68,46.4H75.6L71.76,57.92Z"/><path class="cls-1" d="M92.84,41H99.4V62.2h12v5.16H92.84Z"/><path class="cls-1" d="M114,41h6.56V62.2h12v5.16H114Z"/></g></g></svg>