<?xml version="1.0" encoding="UTF-8"?><svg id="Layer_2" xmlns="http://www.w3.org/2000/svg" viewBox="0 0 38.66 33.45"><defs><style>.cls-1{fill:#fff;}</style></defs><g id="Layer_1-2"><path class="cls-1" d="M15.46,0V15.07c.07,2.41-.27,4.67-1.03,6.78-.76,2.11-1.83,3.98-3.21,5.58-1.38,1.6-3.03,2.94-4.95,3.99-1.92,1.06-4.01,1.73-6.26,2.03v-7.22c2.76-.95,4.65-2.35,5.66-4.21,1.02-1.86,1.52-4.14,1.52-6.84H0V0H15.46Zm23.19,0V15.07c.07,2.41-.27,4.67-1.03,6.78-.76,2.11-1.83,3.98-3.21,5.58-1.38,1.6-3.03,2.94-4.95,3.99-1.92,1.06-4.01,1.73-6.26,2.03v-7.22c2.76-.95,4.65-2.35,5.66-4.21,1.02-1.86,1.53-4.14,1.53-6.84h-7.19V0h15.46Z"/></g></svg>