<?xml version="1.0" encoding="UTF-8"?><svg id="Layer_2" xmlns="http://www.w3.org/2000/svg" viewBox="0 0 30.24 24.29"><defs><style>.cls-1{fill:#215e9e;}</style></defs><g id="Layer_1-2"><path class="cls-1" d="M18.15,24.29V13.35c-.06-1.75,.21-3.39,.81-4.93,.6-1.54,1.43-2.89,2.51-4.05,1.08-1.16,2.37-2.13,3.88-2.9,1.5-.77,3.14-1.26,4.9-1.47V5.24c-2.16,.69-3.63,1.71-4.43,3.06-.8,1.35-1.19,3.01-1.19,4.97h5.62v11.02h-12.09ZM0,24.29V13.35c-.06-1.75,.21-3.39,.81-4.93,.6-1.54,1.43-2.89,2.51-4.05,1.08-1.16,2.37-2.13,3.88-2.9,1.5-.77,3.14-1.26,4.9-1.47V5.24c-2.16,.69-3.63,1.71-4.43,3.06-.8,1.35-1.19,3.01-1.19,4.97h5.62v11.02H0Z"/></g></svg>