<?xml version="1.0" encoding="UTF-8"?><svg id="Layer_2" xmlns="http://www.w3.org/2000/svg" viewBox="0 0 1054 1054"><defs><style>.cls-1{fill:#fff;}</style></defs><g id="Layer_1-2"><path class="cls-1" d="M527,1054c-71.14,0-140.16-13.93-205.13-41.42-62.76-26.54-119.11-64.54-167.51-112.94-48.4-48.4-86.39-104.76-112.94-167.51C13.93,667.16,0,598.14,0,527s13.93-140.16,41.42-205.13c26.54-62.76,64.54-119.11,112.94-167.51,48.4-48.4,104.76-86.39,167.51-112.94C386.84,13.93,455.86,0,527,0s140.16,13.93,205.13,41.42c62.76,26.54,119.11,64.54,167.51,112.94,48.4,48.4,86.39,104.76,112.94,167.51,27.48,64.98,41.42,133.99,41.42,205.13s-13.93,140.16-41.42,205.13c-26.54,62.76-64.54,119.11-112.94,167.51-48.4,48.4-104.75,86.39-167.51,112.94-64.98,27.48-133.99,41.42-205.13,41.42Zm0-1040C244.13,14,14,244.13,14,527s230.13,513,513,513,513-230.13,513-513S809.87,14,527,14Z"/><g><path class="cls-1" d="M150.59,341.62h27.85v85.14h-27.85v-85.14Z"/><path class="cls-1" d="M185.56,362.84h25.72l-.43,17.34h.21c2.24-9.58,7.55-18.37,19.24-18.37,13.61,0,18.71,9.83,18.71,24.97v39.98h-25.72v-31.44c0-4.53-1.6-6.99-5.32-6.99s-6.7,2.85-6.7,9.32v29.11h-25.72v-63.92Z"/><path class="cls-1" d="M276.43,410.19c0-9.32,4.57-16.56,16.58-16.56h17.33v-5.17c0-4.14-1.6-6.6-5.32-6.6s-5.42,2.07-5.42,6.21c0,.26,0,1.3,.11,2.33h-21.47c-.11-1.55-.21-3.23-.21-4.92,0-14.23,7.97-23.68,28.28-23.68,21.69,0,29.76,12.03,29.76,28.72v36.23h-25.72c.1-1.94,.32-6.99,.42-11.64h-.11c-1.7,6.99-6.06,12.68-16.69,12.68-13.82,0-17.54-9.44-17.54-17.6Zm33.91-4.92v-1.94h-5.96c-3.19,0-4.57,1.42-4.57,4.4s1.7,4.79,4.47,4.79c3.51,0,5.95-2.72,6.06-7.25Z"/><path class="cls-1" d="M362.53,341.62h32.32l7.76,41.79h.32l7.55-41.67h23.71l7.44,41.67h.32l7.87-41.79h25.08l-19.35,85.14h-30.82l-6.8-38.43h-.43l-6.91,38.43h-28.81l-19.24-85.14Z"/><path class="cls-1" d="M471.05,394.93c0-18.89,9.35-33.12,31.78-33.12s31.68,14.23,31.68,33.12-9.35,32.86-31.68,32.86-31.78-13.97-31.78-32.86Zm37.74-.13c0-8.02-1.91-11.77-5.95-11.77s-6.06,3.75-6.06,11.77,1.91,11.78,6.06,11.78c3.93,0,5.95-3.88,5.95-11.78Z"/><path class="cls-1" d="M539.08,362.84h25.72l-.43,17.6h.21c2.02-10.48,6.17-18.5,16.16-18.5,11.59,0,15.84,8.02,15.84,25.88,0,6.34-.32,13.46-.53,17.08h-21.05c.11-2.46,.11-6.34,.11-8.67,0-5.3-1.38-7.89-4.36-7.89-3.83,0-5.95,4.27-5.95,12.55v25.88h-25.72v-63.92Z"/><path class="cls-1" d="M601.36,337.09h25.72v89.67h-25.72v-89.67Z"/><path class="cls-1" d="M632.08,394.41c0-20.7,8.71-32.61,22.64-32.61,8.82,0,13.5,3.62,15.52,8.54h.22v-33.25h25.72v89.67h-25.72c.32-4.27,.53-8.41,.64-13.58h-.32c-2.02,7.63-6.59,14.62-16.69,14.62-14.25,0-22.01-11.9-22.01-33.38Zm38.38,1.42v-4.66c-.22-4.92-2.45-8.15-6.38-8.15-4.15,0-6.27,3.62-6.27,11.64s2.12,11.91,6.27,11.91c3.62,0,6.38-2.98,6.38-10.74Z"/><path class="cls-1" d="M148.36,538.92c0-26.14,13.61-43.34,39.33-43.34s39.54,17.21,39.54,43.34-12.97,44.38-39.54,44.38-39.33-16.3-39.33-44.38Zm49.85,.26c0-13.07-4.68-17.98-10.52-17.98s-10.42,4.92-10.42,17.98c0,13.85,4.68,18.5,10.42,18.5s10.52-4.66,10.52-18.5Z"/><path class="cls-1" d="M257.62,568.81h-.1c0,4.01,.21,9.83,.42,13.2h-25.72v-89.67h25.72v24.32c0,3.75-.1,8.93-.32,12.16h.22c2.44-7.25,8.07-11.77,16.9-11.77,13.61,0,21.58,10.61,21.58,31.57,0,23.68-9.03,34.42-21.58,34.42-10.09,0-14.99-6.47-17.11-14.23Zm13.07-19.02c0-7.63-1.91-11.52-5.84-11.52-4.25,0-6.91,3.49-6.91,10.87v4.14c.42,5.82,3.08,8.54,6.8,8.54s5.95-3.62,5.95-12.03Z"/><path class="cls-1" d="M299.82,560.4h20.94c.1,5.05,2.12,7.38,5.85,7.38s5.31-2.07,5.31-5.31c0-2.33-.96-3.62-3.61-4.14-2.45-.39-5.53-.78-8.61-1.29-6.91-.91-11.48-2.07-14.67-4.53-3.19-2.33-5.21-7.38-5.21-12.81,0-13.58,9.89-22.77,28.38-22.77,21.15,0,27.53,8.93,27.53,23.16h-20.83c0-5.69-1.7-7.76-5-7.76s-5,2.07-5,5.17c0,2.59,.85,4.27,4.04,5.05,2.55,.52,6.17,.91,9.67,1.3,5.32,.78,9.99,1.55,13.39,4.01,4.04,2.85,5.63,7.76,5.63,12.94,0,12.29-6.16,22.38-29.76,22.38s-28.06-11-28.06-22.77Z"/><path class="cls-1" d="M420.79,553.28h-33.8c.32,8.02,2.12,11.13,6.7,11.13,3.51,0,5.53-2.33,5.64-7.25h21.47c-.11,15.53-8.3,25.88-28.81,25.88-23.6,0-30.72-14.88-30.72-32.35,0-22.9,11.91-33.64,30.72-33.64s28.81,10.09,28.81,29.89v6.34Zm-21.47-12.55c0-4.66-1.92-7.38-5.64-7.38s-5.74,2.33-6.38,9.83h12.01v-2.46Z"/><path class="cls-1" d="M424.29,560.4h20.94c.1,5.05,2.12,7.38,5.85,7.38s5.31-2.07,5.31-5.31c0-2.33-.96-3.62-3.61-4.14-2.45-.39-5.53-.78-8.61-1.29-6.91-.91-11.48-2.07-14.67-4.53-3.19-2.33-5.21-7.38-5.21-12.81,0-13.58,9.89-22.77,28.38-22.77,21.15,0,27.53,8.93,27.53,23.16h-20.83c0-5.69-1.7-7.76-5-7.76s-5,2.07-5,5.17c0,2.59,.85,4.27,4.04,5.05,2.55,.52,6.17,.91,9.67,1.3,5.32,.78,9.99,1.55,13.39,4.01,4.04,2.85,5.63,7.76,5.63,12.94,0,12.29-6.16,22.38-29.76,22.38s-28.06-11-28.06-22.77Z"/><path class="cls-1" d="M485.72,560.4h20.94c.1,5.05,2.12,7.38,5.85,7.38s5.31-2.07,5.31-5.31c0-2.33-.96-3.62-3.61-4.14-2.45-.39-5.53-.78-8.61-1.29-6.91-.91-11.48-2.07-14.67-4.53-3.19-2.33-5.21-7.38-5.21-12.81,0-13.58,9.89-22.77,28.38-22.77,21.15,0,27.53,8.93,27.53,23.16h-20.83c0-5.69-1.7-7.76-5-7.76s-5,2.07-5,5.17c0,2.59,.85,4.27,4.04,5.05,2.55,.52,6.17,.91,9.67,1.3,5.32,.78,9.99,1.55,13.39,4.01,4.04,2.85,5.63,7.76,5.63,12.94,0,12.29-6.16,22.38-29.76,22.38s-28.06-11-28.06-22.77Z"/><path class="cls-1" d="M606.69,553.28h-33.8c.32,8.02,2.12,11.13,6.7,11.13,3.51,0,5.53-2.33,5.64-7.25h21.47c-.11,15.53-8.3,25.88-28.81,25.88-23.6,0-30.72-14.88-30.72-32.35,0-22.9,11.91-33.64,30.72-33.64s28.81,10.09,28.81,29.89v6.34Zm-21.47-12.55c0-4.66-1.92-7.38-5.64-7.38s-5.74,2.33-6.38,9.83h12.01v-2.46Z"/><path class="cls-1" d="M610.19,549.66c0-20.7,8.71-32.61,22.64-32.61,8.82,0,13.5,3.62,15.52,8.54h.22v-33.25h25.72v89.67h-25.72c.32-4.27,.53-8.41,.64-13.58h-.32c-2.02,7.63-6.59,14.62-16.69,14.62-14.24,0-22-11.9-22-33.38Zm38.38,1.42v-4.66c-.22-4.92-2.45-8.15-6.38-8.15-4.15,0-6.27,3.62-6.27,11.64s2.12,11.91,6.27,11.91c3.61,0,6.38-2.98,6.38-10.74Z"/><path class="cls-1" d="M701.27,496.87h32.32l7.76,41.79h.32l7.55-41.67h23.71l7.44,41.67h.32l7.87-41.79h25.08l-19.35,85.14h-30.82l-6.8-38.43h-.43l-6.91,38.43h-28.81l-19.24-85.14Z"/><path class="cls-1" d="M817.66,494.02h25.94v19.15h-25.94v-19.15Zm0,24.07h25.72v63.92h-25.72v-63.92Z"/><path class="cls-1" d="M854.01,558.46v-17.08h-6.48v-23.29h5.21c3.19,0,4.78-1.68,5.31-6.99l.64-7.5h21.05v14.49h14.46v23.29h-14.46v12.94c0,4.4,1.6,6.08,7.23,6.08,2.87,0,5.74-.26,6.48-.52v21.74c-1.81,.52-6.8,1.29-14.25,1.29-18.49,0-25.19-9.57-25.19-24.45Z"/><path class="cls-1" d="M899.18,492.34h25.72v26.52c0,2.72-.1,9.83-.21,16.56h.11c2.12-9.45,7.44-18.37,19.13-18.37,13.07,0,18.71,9.19,18.71,24.97v39.98h-25.72v-31.44c0-4.66-1.49-6.99-5.31-6.99s-6.7,2.85-6.7,9.57v28.85h-25.72v-89.67Z"/><path class="cls-1" d="M150.27,652.13h33.27c26.36,0,31.04,11,31.04,22.26,0,7.76-2.12,15.66-11.48,18.24v.13c11.05,1.94,14.14,11,14.14,19.02,0,14.62-5.42,25.49-31.89,25.49h-35.08v-85.14Zm33.59,35.71c4.25,0,6.48-1.94,6.48-6.99s-2.34-7.12-6.8-7.12h-5.21v14.1h5.53Zm.21,27.82c5,0,6.7-2.59,6.7-7.76,0-4.53-2.13-6.86-6.8-6.86h-5.64v14.62h5.74Z"/><path class="cls-1" d="M223.29,652.13h27.85v85.14h-27.85v-85.14Z"/><path class="cls-1" d="M257.41,695.73c0-27.69,14.46-44.9,38.48-44.9s34.66,13.07,34.66,31.96c0,1.94-.11,4.79-.21,6.6h-21.9v-3.11c0-6.47-4.36-9.83-10.41-9.83-6.7,0-12.23,5.82-12.23,19.54s5.1,19.8,12.44,19.8c6.06,0,9.67-3.49,9.67-8.93v-.65h-12.97v-12.03h36.36v43.09h-21.69c0-.78,.42-6.73,.42-12.03h-.21c-2.02,8.28-8.5,13.33-19.45,13.33-20.2,0-32.95-16.3-32.95-42.83Z"/></g></g></svg>