<?xml version="1.0" encoding="UTF-8"?><svg id="Layer_2" xmlns="http://www.w3.org/2000/svg" viewBox="0 0 818.41 306.28"><defs><style>.cls-1{fill:#fff;}</style></defs><g id="Layer_1-2"><g><path class="cls-1" d="M1.3,44.28H23.99c0,4.98,2.09,8.06,7.46,8.06s7.07-2.59,7.07-5.27c0-2.19-.89-3.78-3.38-4.38-2.19-.7-6.96-1.29-11.34-1.79-4.87-.7-11.64-2.09-15.72-4.58-4.28-2.59-6.96-7.26-6.96-14.03C1.1,8.96,12.24,0,32.94,0c23.98,0,30.55,8.96,30.55,22.89h-21.3c0-5.28-2.68-7.76-7.56-7.76-4.58,0-6.96,2.19-6.96,4.87,0,2.09,.89,3.38,2.39,4.18,1.89,.79,6.57,1.49,12.24,2.29,6.96,.89,12.14,1.99,15.92,4.08,4.78,2.79,7.47,7.36,7.47,14.03,0,12.14-6.57,22.89-32.94,22.89S1.3,55.73,1.3,44.28Z"/><path class="cls-1" d="M71.24,1h36.92l6.47,26.17h.2L121.4,1h32.04V66.47h-26.17l.3-35.82h-.2l-9.75,35.82h-15.92l-9.65-35.82h-.2l.3,35.82h-20.9V1Z"/><path class="cls-1" d="M202.29,56.32h-16.12l-2.49,10.15h-25.88L179.8,1h34.53l21.99,65.48h-31.65l-2.39-10.15Zm-2.69-11.64l-4.98-21.5h-.5l-5.17,21.5h10.65Z"/><path class="cls-1" d="M240.6,1h26.77V45.78h21.89v20.7h-48.66V1Z"/><path class="cls-1" d="M294.13,1h26.77V45.78h21.89v20.7h-48.66V1Z"/><path class="cls-1" d="M367.16,34.53c0-21.3,13.54-34.53,36.02-34.53s32.44,10.05,32.44,24.58c0,1.49-.1,3.68-.2,5.07h-20.5v-2.39c0-4.97-4.08-7.56-9.75-7.56-6.27,0-11.45,4.48-11.45,15.03s4.78,15.22,11.64,15.22c5.67,0,9.06-2.68,9.06-6.87v-.49h-12.14v-9.26h34.03v33.14h-20.3c0-.6,.4-5.17,.4-9.26h-.2c-1.89,6.37-7.96,10.25-18.21,10.25-18.91,0-30.85-12.54-30.85-32.94Z"/><path class="cls-1" d="M442.88,1h26.07V66.47h-26.07V1Z"/><path class="cls-1" d="M474.03,1h31.84l9.26,40.7h.3L524.78,1h26.27l-21.39,65.48h-34.33L474.03,1Z"/><path class="cls-1" d="M555.72,1h50.06V20.7h-23.78v8.06h16.82v9.85h-16.82v8.16h24.58v19.7h-50.85V1Z"/><path class="cls-1" d="M610.65,44.28h22.69c0,4.98,2.09,8.06,7.46,8.06s7.07-2.59,7.07-5.27c0-2.19-.89-3.78-3.38-4.38-2.19-.7-6.96-1.29-11.34-1.79-4.87-.7-11.64-2.09-15.72-4.58-4.28-2.59-6.96-7.26-6.96-14.03,0-13.34,11.14-22.29,31.84-22.29,23.98,0,30.55,8.96,30.55,22.89h-21.3c0-5.28-2.68-7.76-7.56-7.76-4.58,0-6.96,2.19-6.96,4.87,0,2.09,.89,3.38,2.39,4.18,1.89,.79,6.57,1.49,12.24,2.29,6.96,.89,12.14,1.99,15.92,4.08,4.78,2.79,7.47,7.36,7.47,14.03,0,12.14-6.57,22.89-32.94,22.89s-31.44-11.74-31.44-23.19Z"/><path class="cls-1" d="M700.49,47.97V17.32h24.08v23.88c0,3.49,1.59,5.67,4.88,5.67,3.98,0,6.37-2.79,6.37-8.46V17.32h24.08v49.16h-24.08c.2-2.89,.4-8.56,.49-13.73h-.2c-1.89,7.96-7.26,14.53-17.81,14.53-12.04,0-17.81-7.17-17.81-19.3Z"/><path class="cls-1" d="M764.27,49.86h19.6c.1,3.88,1.99,5.67,5.47,5.67s4.97-1.6,4.97-4.08c0-1.79-.89-2.79-3.38-3.19-2.29-.3-5.17-.6-8.06-.99-6.47-.7-10.75-1.6-13.73-3.49-2.98-1.79-4.87-5.67-4.87-9.85,0-10.45,9.26-17.52,26.57-17.52,19.8,0,25.77,6.87,25.77,17.81h-19.5c0-4.38-1.6-5.97-4.68-5.97s-4.68,1.6-4.68,3.98c0,1.99,.8,3.28,3.78,3.88,2.39,.4,5.77,.7,9.06,1,4.98,.6,9.35,1.19,12.54,3.09,3.78,2.19,5.27,5.97,5.27,9.95,0,9.45-5.77,17.22-27.86,17.22s-26.27-8.46-26.27-17.51Z"/><path class="cls-1" d="M6.07,167.77v-13.13H0v-17.91H4.88c2.98,0,4.48-1.3,4.97-5.38l.6-5.77H30.15v11.15h13.54v17.91h-13.54v9.95c0,3.38,1.49,4.68,6.77,4.68,2.68,0,5.37-.2,6.07-.4v16.72c-1.69,.4-6.37,.99-13.34,.99-17.31,0-23.58-7.36-23.58-18.81Z"/><path class="cls-1" d="M48.36,116.92h24.08v20.4c0,2.09-.1,7.56-.2,12.74h.1c1.99-7.26,6.96-14.13,17.91-14.13,12.24,0,17.51,7.07,17.51,19.21v30.75h-24.08v-24.18c0-3.58-1.39-5.37-4.97-5.37s-6.27,2.19-6.27,7.36v22.19h-24.08V116.92Z"/><path class="cls-1" d="M167.47,163.79h-31.65c.3,6.17,1.99,8.56,6.27,8.56,3.28,0,5.17-1.79,5.28-5.58h20.1c-.1,11.94-7.77,19.9-26.97,19.9-22.09,0-28.76-11.45-28.76-24.88,0-17.61,11.15-25.87,28.76-25.87s26.97,7.76,26.97,22.99v4.87Zm-20.1-9.65c0-3.58-1.79-5.67-5.28-5.67s-5.37,1.79-5.97,7.56h11.25v-1.89Z"/><path class="cls-1" d="M194.03,120.4h31.45c20.3,0,29.86,7.86,29.86,23.78s-7.77,23.28-27.47,23.28h-7.56v18.41h-26.27V120.4Zm32.14,33.63c4.18,0,6.87-1.69,6.87-7.07,0-4.78-2.59-6.87-7.26-6.87h-5.47v13.93h5.87Z"/><path class="cls-1" d="M258.8,152.74c0-20.1,12.74-33.34,36.82-33.34s37.02,13.24,37.02,33.34-12.14,34.13-37.02,34.13-36.82-12.54-36.82-34.13Zm46.67,.2c0-10.05-4.38-13.83-9.85-13.83s-9.75,3.78-9.75,13.83c0,10.65,4.38,14.23,9.75,14.23s9.85-3.58,9.85-14.23Z"/><path class="cls-1" d="M332.53,120.4h30.25l7.26,32.14h.3l7.07-32.05h22.19l6.96,32.05h.3l7.36-32.14h23.48l-18.11,65.48h-28.86l-6.37-29.55h-.4l-6.47,29.55h-26.97l-18.01-65.48Z"/><path class="cls-1" d="M442.38,120.4h50.06v19.7h-23.78v8.06h16.82v9.85h-16.82v8.16h24.58v19.7h-50.85V120.4Z"/><path class="cls-1" d="M498.8,120.4h31.45c24.68,0,32.34,7.96,32.34,20.1,0,7.07-2.79,13.33-12.04,15.42v.2c9.65,1.89,11.74,7.76,11.74,14.43v15.32h-26.07v-16.22c0-4.58-1.69-6.17-5.67-6.17h-5.47v22.39h-26.27V120.4Zm31.55,32.04c4.48,0,6.66-1.89,6.66-6.27,0-3.88-1.99-6.07-6.77-6.07h-5.17v12.34h5.28Z"/><path class="cls-1" d="M593.12,167.77v-13.13h-6.07v-17.91h4.88c2.98,0,4.48-1.3,4.97-5.38l.6-5.77h19.7v11.15h13.54v17.91h-13.54v9.95c0,3.38,1.49,4.68,6.77,4.68,2.68,0,5.37-.2,6.07-.4v16.72c-1.69,.4-6.37,.99-13.34,.99-17.31,0-23.58-7.36-23.58-18.81Z"/><path class="cls-1" d="M633.53,161.4c0-14.53,8.76-25.47,29.75-25.47s29.65,10.95,29.65,25.47-8.76,25.28-29.65,25.28-29.75-10.75-29.75-25.28Zm35.33-.1c0-6.17-1.79-9.05-5.57-9.05s-5.67,2.89-5.67,9.05,1.79,9.06,5.67,9.06c3.68,0,5.57-2.98,5.57-9.06Z"/><path class="cls-1" d="M2.79,239.8h29.36c25.87,0,36.62,12.24,36.62,32.64,0,22.49-10.35,32.84-34.93,32.84H2.79v-65.48Zm31.05,45.78c5.47,0,8.66-3.58,8.66-13.13,0-8.96-3.48-12.94-8.96-12.94h-4.48v26.07h4.78Z"/><path class="cls-1" d="M72.44,272.14c0-20.1,12.74-33.33,36.82-33.33s37.02,13.23,37.02,33.33-12.14,34.14-37.02,34.14-36.82-12.54-36.82-34.14Zm46.67,.2c0-10.05-4.38-13.83-9.85-13.83s-9.75,3.78-9.75,13.83c0,10.65,4.38,14.23,9.75,14.23s9.85-3.58,9.85-14.23Z"/><path class="cls-1" d="M173.13,239.8h31.15c24.68,0,29.06,8.46,29.06,17.12,0,5.97-1.99,12.04-10.75,14.03v.1c10.35,1.49,13.24,8.46,13.24,14.63,0,11.24-5.08,19.6-29.86,19.6h-32.84v-65.48Zm31.45,27.47c3.98,0,6.07-1.49,6.07-5.37s-2.19-5.47-6.37-5.47h-4.87v10.85h5.17Zm.2,21.39c4.68,0,6.27-1.99,6.27-5.97,0-3.49-1.99-5.28-6.37-5.28h-5.28v11.24h5.37Z"/><path class="cls-1" d="M241.49,239.8h26.07v65.48h-26.07v-65.48Z"/><path class="cls-1" d="M273.43,273.34c0-21.3,13.54-34.53,36.02-34.53s32.44,10.05,32.44,24.58c0,1.49-.1,3.68-.2,5.08h-20.5v-2.39c0-4.98-4.08-7.56-9.75-7.56-6.27,0-11.45,4.48-11.45,15.03s4.78,15.23,11.64,15.23c5.67,0,9.06-2.69,9.06-6.87v-.5h-12.14v-9.26h34.03v33.14h-20.3c0-.6,.4-5.17,.4-9.26h-.2c-1.89,6.37-7.96,10.25-18.21,10.25-18.91,0-30.85-12.54-30.85-32.94Z"/><path class="cls-1" d="M383.18,260.5h-15.22v-20.7h56.62v20.7h-15.23v44.78h-26.17v-44.78Z"/><path class="cls-1" d="M429.75,239.8h26.17v21.9h15.43v-21.9h26.07v65.48h-26.07v-23.09h-15.43v23.09h-26.17v-65.48Z"/><path class="cls-1" d="M505.17,239.8h26.07v65.48h-26.07v-65.48Z"/><path class="cls-1" d="M538.9,239.8h35.73l11.84,31.15h.2l-.5-31.15h20.7v65.48h-34.03l-14.03-37.32h-.2l1.19,37.32h-20.9v-65.48Z"/><path class="cls-1" d="M612.53,273.34c0-21.3,13.54-34.53,36.02-34.53s32.44,10.05,32.44,24.58c0,1.49-.1,3.68-.2,5.08h-20.5v-2.39c0-4.98-4.08-7.56-9.75-7.56-6.27,0-11.45,4.48-11.45,15.03s4.78,15.23,11.64,15.23c5.67,0,9.06-2.69,9.06-6.87v-.5h-12.14v-9.26h34.03v33.14h-20.3c0-.6,.4-5.17,.4-9.26h-.2c-1.89,6.37-7.96,10.25-18.21,10.25-18.91,0-30.85-12.54-30.85-32.94Z"/><path class="cls-1" d="M686.46,283.09h22.69c0,4.98,2.09,8.06,7.46,8.06s7.07-2.59,7.07-5.28c0-2.19-.89-3.78-3.38-4.38-2.19-.7-6.96-1.3-11.34-1.79-4.87-.7-11.64-2.09-15.72-4.58-4.28-2.59-6.96-7.27-6.96-14.03,0-13.33,11.14-22.29,31.84-22.29,23.98,0,30.55,8.96,30.55,22.89h-21.3c0-5.28-2.68-7.77-7.56-7.77-4.58,0-6.96,2.19-6.96,4.88,0,2.09,.89,3.38,2.39,4.18,1.89,.8,6.57,1.49,12.24,2.29,6.96,.9,12.14,1.99,15.92,4.08,4.78,2.79,7.47,7.36,7.47,14.03,0,12.14-6.57,22.89-32.94,22.89s-31.44-11.75-31.44-23.19Z"/><path class="cls-1" d="M755.82,285.38h20.1v19.9h-20.1v-19.9Z"/></g></g></svg>