<?xml version="1.0" encoding="UTF-8"?><svg id="Layer_2" xmlns="http://www.w3.org/2000/svg" viewBox="0 0 308.36 152.63"><defs><style>.cls-1{fill:#e72d56;}</style></defs><g id="Layer_1-2"><g><path class="cls-1" d="M0,0H24.84l5.96,26.39h.25L36.85,.08h18.22l5.72,26.31h.25L67.09,0h19.28l-14.87,53.76h-23.69l-5.23-24.27h-.33l-5.31,24.27H14.79L0,0Z"/><path class="cls-1" d="M129.18,35.63h-25.98c.24,5.07,1.63,7.03,5.15,7.03,2.7,0,4.25-1.47,4.33-4.57h16.51c-.08,9.8-6.38,16.34-22.14,16.34-18.14,0-23.61-9.4-23.61-20.43,0-14.46,9.15-21.24,23.61-21.24s22.14,6.38,22.14,18.88v4Zm-16.51-7.93c0-2.94-1.47-4.66-4.33-4.66s-4.41,1.47-4.9,6.21h9.24v-1.55Z"/><path class="cls-1" d="M184.98,45.43h-13.24l-2.04,8.33h-21.25L166.51,0h28.36l18.06,53.76h-25.98l-1.96-8.33Zm-2.21-9.56l-4.09-17.65h-.41l-4.25,17.65h8.74Z"/><path class="cls-1" d="M215.62,13.4h19.77l-.33,11.11h.16c1.55-6.62,4.74-11.69,12.42-11.69,8.91,0,12.17,5.06,12.17,16.34,0,4.01-.24,8.5-.41,10.79h-16.18c.08-1.55,.08-4.01,.08-5.48,0-3.35-1.06-4.98-3.35-4.98-2.94,0-4.57,2.7-4.57,7.93v16.34h-19.77V13.4Z"/><path class="cls-1" d="M308.36,35.63h-25.98c.24,5.07,1.63,7.03,5.15,7.03,2.7,0,4.25-1.47,4.33-4.57h16.51c-.08,9.8-6.38,16.34-22.14,16.34-18.14,0-23.61-9.4-23.61-20.43,0-14.46,9.15-21.24,23.61-21.24s22.14,6.38,22.14,18.88v4Zm-16.51-7.93c0-2.94-1.47-4.66-4.33-4.66s-4.41,1.47-4.9,6.21h9.24v-1.55Z"/><path class="cls-1" d="M.9,133.59H19.53c0,4.09,1.72,6.62,6.13,6.62s5.8-2.13,5.8-4.33c0-1.8-.73-3.11-2.78-3.59-1.8-.57-5.72-1.06-9.32-1.47-4-.57-9.56-1.72-12.91-3.76-3.51-2.12-5.72-5.96-5.72-11.52,0-10.95,9.15-18.3,26.15-18.3,19.69,0,25.08,7.35,25.08,18.79h-17.49c0-4.33-2.2-6.37-6.21-6.37-3.76,0-5.72,1.8-5.72,4.01,0,1.72,.73,2.78,1.96,3.43,1.55,.65,5.39,1.22,10.05,1.88,5.72,.73,9.97,1.63,13.07,3.35,3.92,2.29,6.13,6.05,6.13,11.52,0,9.97-5.39,18.8-27.05,18.8S.9,142.99,.9,133.59Z"/><path class="cls-1" d="M58.34,98.04h30.32l5.31,21.49h.17l5.39-21.49h26.31v53.77h-21.49l.25-29.42h-.17l-8.01,29.42h-13.08l-7.93-29.42h-.16l.25,29.42h-17.16v-53.77Z"/><path class="cls-1" d="M165.95,143.48h-13.24l-2.04,8.34h-21.25l18.06-53.77h28.36l18.06,53.77h-25.98l-1.96-8.34Zm-2.21-9.56l-4.09-17.65h-.41l-4.25,17.65h8.74Z"/><path class="cls-1" d="M197.4,98.04h21.98v36.77h17.98v17h-39.96v-53.77Z"/><path class="cls-1" d="M241.35,98.04h21.98v36.77h17.98v17h-39.96v-53.77Z"/></g></g></svg>