<?xml version="1.0" encoding="UTF-8"?><svg id="Layer_2" xmlns="http://www.w3.org/2000/svg" viewBox="0 0 718.82 235.02"><defs><style>.cls-1{fill:#fff;}</style></defs><g id="Layer_1-2"><path class="cls-1" d="M9.1,68.87v-17.79H.88V26.82H7.49c4.04,0,6.06-1.75,6.73-7.28l.81-7.82h26.68v15.1h18.33v24.26h-18.33v13.48c0,4.58,2.02,6.33,9.17,6.33,3.64,0,7.28-.27,8.22-.54v22.64c-2.29,.54-8.63,1.34-18.06,1.34-23.45,0-31.94-9.97-31.94-25.46Z"/><path class="cls-1" d="M66.37,0h32.61V27.62c0,2.83-.13,10.24-.27,17.25h.14c2.69-9.84,9.43-19.14,24.26-19.14,16.58,0,23.71,9.57,23.71,26.01v41.64h-32.61V60.64c0-4.85-1.89-7.28-6.73-7.28s-8.49,2.97-8.49,9.97v30.05h-32.61V0Z"/><path class="cls-1" d="M227.68,63.47h-42.86c.4,8.36,2.69,11.59,8.49,11.59,4.45,0,7.01-2.42,7.14-7.54h27.22c-.14,16.17-10.52,26.95-36.52,26.95-29.92,0-38.95-15.5-38.95-33.69,0-23.85,15.1-35.04,38.95-35.04s36.52,10.52,36.52,31.13v6.6Zm-27.22-13.07c0-4.85-2.43-7.68-7.14-7.68s-7.28,2.43-8.09,10.24h15.23v-2.56Z"/><path class="cls-1" d="M262.43,26.82h32.61l-.27,12.13h.14c3.23-8.36,9.57-13.21,21.83-13.21,17.52,0,26.96,11.72,26.96,32.89,0,24.52-10.78,35.84-27.9,35.84-11.72,0-17.79-4.72-20.75-11.45h-.27c.14,3.5,.27,9.43,.27,12.4v24.66h-32.61V26.82Zm48.78,33.01c0-8.49-2.69-11.99-7.54-11.99s-8.49,3.5-8.63,11.86v3.24c.54,6.2,4.04,9.43,8.63,9.43,4.85,0,7.54-3.77,7.54-12.53Z"/><path class="cls-1" d="M348.27,60.24c0-19.67,11.86-34.5,40.3-34.5s40.16,14.83,40.16,34.5-11.86,34.23-40.16,34.23-40.3-14.56-40.3-34.23Zm47.84-.13c0-8.36-2.42-12.27-7.54-12.27s-7.68,3.91-7.68,12.27,2.42,12.26,7.68,12.26c4.98,0,7.54-4.04,7.54-12.26Z"/><path class="cls-1" d="M429.26,26.82h34.77l6.47,37.74h.27l7.28-37.74h29.11l7.01,37.74h.27l6.74-37.74h27.22l-15.36,66.57h-39.22l-6.47-31.53h-.27l-6.47,31.53h-35.98l-15.36-66.57Z"/><path class="cls-1" d="M624.53,63.47h-42.86c.4,8.36,2.69,11.59,8.49,11.59,4.45,0,7.01-2.42,7.14-7.54h27.22c-.14,16.17-10.52,26.95-36.52,26.95-29.92,0-38.95-15.5-38.95-33.69,0-23.85,15.1-35.04,38.95-35.04s36.52,10.52,36.52,31.13v6.6Zm-27.22-13.07c0-4.85-2.43-7.68-7.14-7.68s-7.28,2.43-8.09,10.24h15.23v-2.56Z"/><path class="cls-1" d="M630.32,26.82h32.61l-.54,18.33h.27c2.56-10.92,7.82-19.27,20.49-19.27,14.69,0,20.08,8.35,20.08,26.95,0,6.61-.4,14.01-.67,17.79h-26.68c.14-2.56,.14-6.61,.14-9.03,0-5.53-1.75-8.22-5.53-8.22-4.85,0-7.54,4.45-7.54,13.07v26.95h-32.61V26.82Z"/><path class="cls-1" d="M5.61,198.34v-12.14H0v-16.55H4.51c2.76,0,4.14-1.2,4.59-4.97l.55-5.33H27.86v10.3h12.51v16.55h-12.51v9.19c0,3.13,1.38,4.32,6.25,4.32,2.48,0,4.96-.18,5.61-.37v15.45c-1.56,.37-5.88,.92-12.32,.92-16,0-21.79-6.8-21.79-17.38Z"/><path class="cls-1" d="M42.93,192.46c0-13.43,8.09-23.54,27.49-23.54s27.4,10.11,27.4,23.54-8.09,23.35-27.4,23.35-27.49-9.93-27.49-23.35Zm32.64-.1c0-5.7-1.65-8.36-5.15-8.36s-5.24,2.67-5.24,8.36,1.65,8.37,5.24,8.37c3.4,0,5.15-2.76,5.15-8.37Z"/><path class="cls-1" d="M120.52,192.09c0-14.71,7.54-23.17,19.58-23.17,7.63,0,11.67,2.57,13.42,6.07h.19v-23.63h22.25v63.72h-22.25c.27-3.04,.46-5.98,.55-9.65h-.28c-1.75,5.42-5.7,10.39-14.43,10.39-12.32,0-19.03-8.46-19.03-23.72Zm33.19,1.01v-3.31c-.19-3.49-2.12-5.79-5.52-5.79-3.59,0-5.42,2.57-5.42,8.27s1.84,8.46,5.42,8.46c3.13,0,5.52-2.12,5.52-7.63Z"/><path class="cls-1" d="M180.19,192.46c0-13.43,8.09-23.54,27.49-23.54s27.4,10.11,27.4,23.54-8.09,23.35-27.4,23.35-27.49-9.93-27.49-23.35Zm32.64-.1c0-5.7-1.65-8.36-5.15-8.36s-5.24,2.67-5.24,8.36,1.65,8.37,5.24,8.37c3.4,0,5.15-2.76,5.15-8.37Z"/><path class="cls-1" d="M280.76,205.69h-.09c0,2.85,.18,6.99,.37,9.38h-22.25v-63.72h22.25v17.29c0,2.66-.09,6.34-.28,8.64h.19c2.11-5.15,6.98-8.36,14.62-8.36,11.77,0,18.67,7.53,18.67,22.43,0,16.83-7.81,24.46-18.67,24.46-8.73,0-12.96-4.6-14.8-10.12Zm11.31-13.51c0-5.42-1.65-8.18-5.05-8.18-3.68,0-5.98,2.48-5.98,7.72v2.94c.37,4.14,2.67,6.07,5.88,6.07s5.15-2.58,5.15-8.55Z"/><path class="cls-1" d="M318.36,152.55h22.43v13.61h-22.43v-13.61Zm0,17.1h22.25v45.42h-22.25v-45.42Z"/><path class="cls-1" d="M400.92,217.83c0,9.74-8.18,17.19-27.77,17.19-21.61,0-28.32-5.06-28.32-11.31,0-3.31,2.21-6.34,7.54-6.71v-.09c-4.23-2.67-4.97-6.25-4.97-8.64,0-4.41,2.48-8.55,8.09-9.28v-.09c-6.43-2.67-9.56-7.45-9.56-13.7,0-9.29,7.72-16.27,25.01-16.27,5.7,0,10.48,.73,14.25,2.11v-.09c-1.47-.92-3.22-2.67-3.22-5.15,0-3.22,2.76-5.98,11.67-5.98,2.48,0,4.69,.18,5.7,.37v13.06c-.92-.18-1.65-.18-2.3-.18-2.58,0-3.68,.82-3.68,2.48,0,.46,.09,1.1,.28,1.66,1.56,2.3,2.3,4.96,2.3,8,0,9.47-7.91,16.27-25.01,16.27-2.3,0-4.41-.09-6.43-.37-.18,.46-.28,1.01-.28,1.56,0,1.29,.74,2.21,2.39,2.21h15.36c13.52,0,18.94,5.51,18.94,12.96Zm-21.97,4.96c0-1.56-1.38-2.48-6.16-2.48h-3.13c-1.75,0-3.4,.74-3.4,2.67s2.3,3.03,6.71,3.03,5.98-1.29,5.98-3.22Zm-12.05-37.6c0,4.14,1.47,6.07,4.04,6.07s4.05-1.93,4.05-6.07-1.47-6.07-4.05-6.07-4.04,1.74-4.04,6.07Z"/><path class="cls-1" d="M427.85,198.34v-12.14h-5.61v-16.55h4.51c2.76,0,4.14-1.2,4.59-4.97l.55-5.33h18.2v10.3h12.51v16.55h-12.51v9.19c0,3.13,1.38,4.32,6.25,4.32,2.48,0,4.96-.18,5.61-.37v15.45c-1.56,.37-5.88,.92-12.32,.92-16,0-21.79-6.8-21.79-17.38Z"/><path class="cls-1" d="M466.93,151.36h22.25v18.85c0,1.93-.09,6.99-.18,11.77h.09c1.84-6.71,6.43-13.06,16.55-13.06,11.31,0,16.18,6.52,16.18,17.74v28.41h-22.25v-22.34c0-3.31-1.29-4.96-4.59-4.96s-5.79,2.02-5.79,6.8v20.51h-22.25v-63.72Z"/><path class="cls-1" d="M526.49,152.55h22.43v13.61h-22.43v-13.61Zm0,17.1h22.25v45.42h-22.25v-45.42Z"/><path class="cls-1" d="M553.99,169.65h22.25l-.37,12.32h.18c1.93-6.81,6.53-13.06,16.64-13.06,11.77,0,16.18,6.98,16.18,17.74v28.41h-22.25v-22.34c0-3.22-1.38-4.96-4.6-4.96s-5.79,2.02-5.79,6.62v20.69h-22.25v-45.42Z"/><path class="cls-1" d="M668.54,217.83c0,9.74-8.18,17.19-27.77,17.19-21.61,0-28.32-5.06-28.32-11.31,0-3.31,2.21-6.34,7.54-6.71v-.09c-4.23-2.67-4.97-6.25-4.97-8.64,0-4.41,2.48-8.55,8.09-9.28v-.09c-6.43-2.67-9.56-7.45-9.56-13.7,0-9.29,7.72-16.27,25.01-16.27,5.7,0,10.48,.73,14.25,2.11v-.09c-1.47-.92-3.22-2.67-3.22-5.15,0-3.22,2.76-5.98,11.67-5.98,2.48,0,4.69,.18,5.7,.37v13.06c-.92-.18-1.65-.18-2.3-.18-2.58,0-3.68,.82-3.68,2.48,0,.46,.09,1.1,.28,1.66,1.56,2.3,2.3,4.96,2.3,8,0,9.47-7.91,16.27-25.01,16.27-2.3,0-4.41-.09-6.43-.37-.18,.46-.28,1.01-.28,1.56,0,1.29,.74,2.21,2.39,2.21h15.36c13.52,0,18.94,5.51,18.94,12.96Zm-21.97,4.96c0-1.56-1.38-2.48-6.16-2.48h-3.13c-1.75,0-3.4,.74-3.4,2.67s2.3,3.03,6.71,3.03,5.98-1.29,5.98-3.22Zm-12.05-37.6c0,4.14,1.47,6.07,4.04,6.07s4.05-1.93,4.05-6.07-1.47-6.07-4.05-6.07-4.04,1.74-4.04,6.07Z"/><path class="cls-1" d="M668.81,199.72h18.11c.09,3.59,1.84,5.24,5.06,5.24s4.59-1.47,4.59-3.77c0-1.65-.83-2.57-3.12-2.94-2.12-.28-4.78-.55-7.45-.92-5.98-.64-9.93-1.47-12.69-3.22-2.76-1.65-4.5-5.24-4.5-9.11,0-9.65,8.55-16.18,24.55-16.18,18.3,0,23.81,6.34,23.81,16.46h-18.02c0-4.04-1.47-5.51-4.32-5.51s-4.32,1.47-4.32,3.67c0,1.84,.74,3.04,3.49,3.59,2.21,.37,5.33,.64,8.37,.92,4.6,.55,8.64,1.1,11.59,2.85,3.49,2.02,4.87,5.52,4.87,9.19,0,8.74-5.33,15.91-25.74,15.91s-24.27-7.81-24.27-16.18Z"/></g></svg>