<?xml version="1.0" encoding="UTF-8"?><svg id="Layer_2" xmlns="http://www.w3.org/2000/svg" viewBox="0 0 698.2 88.14"><defs><style>.cls-1{fill:#fff;}</style></defs><g id="Layer_1-2"><path class="cls-1" d="M.19,45.53H22.28c0,4.84,2.03,7.84,7.26,7.84s6.88-2.51,6.88-5.13c0-2.13-.87-3.68-3.29-4.26-2.13-.68-6.78-1.26-11.04-1.74-4.74-.68-11.33-2.03-15.3-4.45C2.61,35.26,0,30.7,0,24.12,0,11.14,10.85,2.42,31,2.42c23.34,0,29.73,8.72,29.73,22.28h-20.73c0-5.14-2.61-7.56-7.36-7.56-4.45,0-6.78,2.13-6.78,4.74,0,2.03,.87,3.29,2.33,4.07,1.84,.78,6.39,1.45,11.91,2.23,6.78,.87,11.82,1.94,15.5,3.97,4.65,2.71,7.27,7.16,7.27,13.66,0,11.82-6.39,22.27-32.06,22.27S.19,56.66,.19,45.53Z"/><path class="cls-1" d="M67.31,19.28h23.44l-.29,12.88h.19c2.03-7.56,6.59-13.66,15.79-13.66s14.43,4.17,15.79,13.27h.1c1.84-7.46,7.17-13.27,15.89-13.27,11.14,0,16.08,6.39,16.08,18.6v30.02h-23.44v-23.73c0-3.39-1.16-5.04-3.59-5.04-2.71,0-4.74,2.13-4.74,6.88v21.89h-23.44v-23.83c0-3.29-1.06-4.94-3.58-4.94-2.71,0-4.74,2.23-4.74,6.97v21.79h-23.44V19.28Z"/><path class="cls-1" d="M158.54,54.72c0-6.97,4.17-12.4,15.11-12.4h15.79v-3.87c0-3.1-1.45-4.94-4.84-4.94s-4.94,1.55-4.94,4.65c0,.19,0,.97,.1,1.74h-19.57c-.1-1.16-.19-2.42-.19-3.68,0-10.66,7.26-17.73,25.77-17.73,19.76,0,27.12,9.01,27.12,21.5v27.12h-23.44c.09-1.45,.29-5.23,.39-8.72h-.1c-1.55,5.23-5.52,9.49-15.2,9.49-12.6,0-15.98-7.07-15.98-13.17Zm30.9-3.68v-1.45h-5.43c-2.9,0-4.17,1.06-4.17,3.29s1.55,3.58,4.07,3.58c3.2,0,5.42-2.03,5.52-5.43Z"/><path class="cls-1" d="M217.92,0h23.44V67.12h-23.44V0Z"/><path class="cls-1" d="M246.97,0h23.44V67.12h-23.44V0Z"/><path class="cls-1" d="M354.67,70.03c0,10.27-8.62,18.11-29.25,18.11-22.76,0-29.83-5.33-29.83-11.91,0-3.49,2.33-6.68,7.94-7.07v-.09c-4.46-2.81-5.23-6.59-5.23-9.1,0-4.65,2.62-9.01,8.52-9.78v-.1c-6.78-2.81-10.07-7.85-10.07-14.44,0-9.78,8.14-17.14,26.35-17.14,6.01,0,11.04,.78,15.02,2.23v-.1c-1.55-.97-3.39-2.81-3.39-5.43,0-3.39,2.9-6.29,12.3-6.29,2.62,0,4.94,.19,6.01,.39v13.75c-.97-.2-1.74-.2-2.42-.2-2.72,0-3.87,.87-3.87,2.62,0,.48,.09,1.16,.29,1.74,1.65,2.42,2.42,5.23,2.42,8.43,0,9.98-8.33,17.15-26.35,17.15-2.42,0-4.65-.1-6.78-.39-.19,.49-.29,1.07-.29,1.65,0,1.36,.78,2.33,2.52,2.33h16.18c14.24,0,19.95,5.81,19.95,13.66Zm-23.15,5.23c0-1.65-1.45-2.61-6.49-2.61h-3.29c-1.84,0-3.58,.77-3.58,2.81s2.42,3.2,7.07,3.2,6.3-1.36,6.3-3.39Zm-12.69-39.62c0,4.36,1.55,6.4,4.26,6.4s4.26-2.04,4.26-6.4-1.55-6.39-4.26-6.39-4.26,1.84-4.26,6.39Z"/><path class="cls-1" d="M358.25,1.26h23.63V15.59h-23.63V1.26Zm0,18.01h23.44v47.85h-23.44V19.28Z"/><path class="cls-1" d="M385.76,19.28h27.31l6.39,27.22h.29l6.39-27.22h23.15l-17.53,47.85h-28.48l-17.53-47.85Z"/><path class="cls-1" d="M502.96,45.62h-30.8c.29,6.01,1.94,8.33,6.1,8.33,3.2,0,5.04-1.74,5.14-5.42h19.57c-.1,11.62-7.56,19.37-26.25,19.37-21.5,0-27.99-11.14-27.99-24.22,0-17.14,10.85-25.18,27.99-25.18s26.25,7.56,26.25,22.38v4.74Zm-19.57-9.4c0-3.48-1.75-5.52-5.14-5.52s-5.23,1.75-5.81,7.36h10.95v-1.84Z"/><path class="cls-1" d="M506.15,50.95h19.08c.09,3.78,1.94,5.52,5.33,5.52s4.84-1.55,4.84-3.97c0-1.74-.87-2.71-3.29-3.1-2.23-.29-5.04-.58-7.85-.97-6.3-.68-10.46-1.55-13.37-3.39-2.9-1.74-4.74-5.52-4.74-9.58,0-10.17,9.01-17.05,25.86-17.05,19.28,0,25.09,6.68,25.09,17.34h-18.98c0-4.26-1.55-5.81-4.56-5.81s-4.55,1.55-4.55,3.88c0,1.94,.78,3.19,3.68,3.78,2.33,.39,5.62,.68,8.82,.97,4.84,.58,9.1,1.16,12.21,3,3.68,2.13,5.13,5.81,5.13,9.69,0,9.2-5.62,16.76-27.12,16.76s-25.57-8.24-25.57-17.05Z"/><path class="cls-1" d="M583.43,49.11V19.28h23.44v23.25c0,3.39,1.55,5.52,4.75,5.52,3.87,0,6.2-2.71,6.2-8.23V19.28h23.44v47.85h-23.44c.19-2.81,.39-8.33,.48-13.37h-.19c-1.84,7.75-7.07,14.14-17.34,14.14-11.72,0-17.34-6.97-17.34-18.79Z"/><path class="cls-1" d="M645.51,50.95h19.08c.09,3.78,1.94,5.52,5.33,5.52s4.84-1.55,4.84-3.97c0-1.74-.87-2.71-3.29-3.1-2.23-.29-5.04-.58-7.85-.97-6.3-.68-10.46-1.55-13.37-3.39-2.9-1.74-4.74-5.52-4.74-9.58,0-10.17,9.01-17.05,25.86-17.05,19.28,0,25.09,6.68,25.09,17.34h-18.98c0-4.26-1.55-5.81-4.56-5.81s-4.55,1.55-4.55,3.88c0,1.94,.78,3.19,3.68,3.78,2.33,.39,5.62,.68,8.82,.97,4.84,.58,9.1,1.16,12.21,3,3.68,2.13,5.13,5.81,5.13,9.69,0,9.2-5.62,16.76-27.12,16.76s-25.57-8.24-25.57-17.05Z"/></g></svg>